<?xml version="1.0" encoding="UTF-8"?>
<!-- Generator: Adobe Illustrator 14.0.0, SVG Export Plug-In . SVG Version: 6.00 Build 43363)  -->
<!DOCTYPE svg PUBLIC "-//W3C//DTD SVG 1.1//EN" "http://www.w3.org/Graphics/SVG/1.1/DTD/svg11.dtd">
<svg version="1.1" id="Layer_1" xmlns="http://www.w3.org/2000/svg" xmlns:xlink="http://www.w3.org/1999/xlink" x="0px" y="0px" width="427.002px" height="233.667px" viewBox="-45.5 2.5 427.002 233.667" enable-background="new -45.5 2.5 427.002 233.667" xml:space="preserve">
<g>
	<path fill="#D64001" d="M371.33,5H111.837c-4.696,0-8.504,3.807-8.504,8.504v150.492c0,4.697,3.808,8.504,8.504,8.504h116.914v40   h-65.247c-4.695,0-8.504,3.807-8.504,8.504v4.992c0,4.697,3.809,8.504,8.504,8.504h152.493c4.695,0,8.504-3.807,8.504-8.504v-4.992   c0-4.697-3.809-8.504-8.504-8.504h-65.246v-40H371.33c4.695,0,8.504-3.807,8.504-8.504V13.504C379.834,8.807,376.025,5,371.33,5z    M360.724,146.633c0,4.048-3.283,7.328-7.33,7.328H129.77c-4.046,0-7.328-3.28-7.328-7.328V30.661c0-4.048,3.282-7.328,7.328-7.328   h223.624c4.047,0,7.33,3.28,7.33,7.328V146.633z"/>
	<path fill="#D64001" d="M78.164,5H-35.328c-4.697,0-8.504,3.808-8.504,8.504l0,212.492c0,4.695,3.807,8.504,8.504,8.504H78.163   c4.697,0,8.504-3.809,8.504-8.504l0-212.492C86.668,8.808,82.861,5,78.164,5z M35.5,134.871c0,4.696-3.807,8.504-8.504,8.504   H15.254c-4.697,0-8.504-3.808-8.504-8.504v-4.742c0-4.696,3.807-8.504,8.504-8.504h11.742c4.697,0,8.504,3.808,8.504,8.504V134.871   z M67,37.205c0,4.696-3.807,8.504-8.504,8.504h-74.742c-4.697,0-8.504-3.808-8.504-8.504v-4.742c0-4.696,3.807-8.504,8.504-8.504   h74.742c4.697,0,8.504,3.808,8.504,8.504V37.205z"/>
</g>
</svg>